<svg height="511pt" viewBox="0 -14 511.99893 511" width="511pt" xmlns="http://www.w3.org/2000/svg"><g fill="#937fe6"><path d="m396.984375 341.785156h50.511719c9.136718 0 17.898437 3.632813 24.359375 10.089844l35.789062 35.789062c9.304688 9.304688 2.714844 25.214844-10.445312 25.214844h-29.648438l-71.460937-44.6875zm0 0"/><path d="m369.683594 369.085938v50.507812c0 9.140625 3.632812 17.902344 10.089844 24.363281l35.789062 35.789063c9.304688 9.304687 25.214844 2.714844 25.214844-10.445313v-29.648437l-44.6875-71.460938zm0 0"/><path d="m115.015625 341.785156h-50.511719c-9.136718 0-17.898437 3.632813-24.359375 10.089844l-35.789062 35.789062c-9.304688 9.304688-2.714844 25.21875 10.445312 25.21875h29.648438l71.460937-44.6875zm0 0"/><path d="m142.316406 369.085938v50.507812c0 9.140625-3.632812 17.902344-10.089844 24.363281l-35.789062 35.789063c-9.304688 9.304687-25.214844 2.714844-25.214844-10.445313v-29.648437l44.6875-71.460938zm0 0"/></g><path d="m416.777344 40.550781-372.328125 372.328125c-3.480469 3.480469-3.480469 9.125 0 12.605469l14.167969 14.167969c3.480468 3.480468 9.125 3.480468 12.605468 0l372.328125-372.328125zm0 0" fill="#ff98c9"/><path d="m277.851562 179.472656 26.773438 26.773438-70.480469 70.480468-26.773437-26.773437zm0 0" fill="#eb6da8"/><path d="m477.292969 6.808594c-148.578125-35-156.296875 87.292968-81.996094 81.996094-5.296875 74.296874 117 66.582031 81.996094-81.996094zm0 0" fill="#937fe6"/><path d="m95.222656 40.550781 372.332032 372.332031c3.480468 3.480469 3.480468 9.121094 0 12.601563l-14.171876 14.167969c-3.480468 3.484375-9.121093 3.484375-12.601562 0l-372.335938-372.328125zm0 0" fill="#ff98c9"/><path d="m34.707031 6.808594c148.578125-35 156.296875 87.292968 81.996094 81.996094 5.296875 74.296874-117 66.582031-81.996094-81.996094zm0 0" fill="#937fe6"/></svg>