<svg version="1.1" id="Capa_2" xmlns="http://www.w3.org/2000/svg" xmlns:xlink="http://www.w3.org/1999/xlink" x="0px" y="0px"
	 viewBox="0 0 512 512" style="enable-background:new 0 0 512 512;" xml:space="preserve">
<g>
	<circle style="fill:#955BA5;" cx="256" cy="167.724" r="167.724"/>
	<g>
		<path style="fill:#CC66A1;" d="M310.934,37.606C293.555,30.249,274.872,26.466,256,26.483c-4.875,0-8.828,3.952-8.828,8.828
			s3.952,8.828,8.828,8.828c16.506-0.025,32.848,3.278,48.049,9.71c1.09,0.458,2.26,0.695,3.443,0.697
			c4.2,0.002,7.819-2.955,8.655-7.071c0.836-4.116-1.344-8.25-5.212-9.887V37.606z"/>
		<path style="fill:#CC66A1;" d="M394.364,139.299c-3.711-18.068-10.943-35.228-21.283-50.503
			c-5.074-7.499-10.849-14.499-17.249-20.904c-3.501-3.081-8.794-2.907-12.085,0.396c-3.292,3.303-3.446,8.597-0.353,12.086
			c5.597,5.616,10.654,11.746,15.104,18.308c13.783,20.383,21.129,44.435,21.089,69.041c0,4.875,3.952,8.828,8.828,8.828
			s8.828-3.952,8.828-8.828C397.246,158.176,396.282,148.652,394.364,139.299z"/>
	</g>
	<path style="fill:#894B9D;" d="M236.182,238.345c-38.974-1.282-69.578-33.831-68.458-72.81c0-48.967,37.402-88.806,83.368-88.806
		c56.249,0,102.012,48.808,102.012,108.8c0,4.875-3.952,8.828-8.828,8.828s-8.828-3.952-8.828-8.828
		c0-50.255-37.844-91.145-84.356-91.145c-36.237,0-65.713,31.921-65.713,71.15c-1.116,29.228,21.582,53.87,50.803,55.155
		c22.394-1.045,39.744-19.972,38.841-42.372c0.694-16.947-12.403-31.285-29.343-32.124c-12.576,0.671-22.263,11.35-21.707,23.932
		c-0.451,9.096,6.515,16.855,15.607,17.382c4.875,0,8.828,3.952,8.828,8.828c0,4.875-3.952,8.828-8.828,8.828
		c-18.845-0.525-33.717-16.19-33.262-35.037c-0.549-22.329,17.037-40.909,39.362-41.587c26.707,0.822,47.73,23.068,47.042,49.779
		C293.624,210.483,268.344,237.322,236.182,238.345z"/>
	<path style="fill:#805333;" d="M459.034,423.724v70.621c-0.029,9.739-7.917,17.626-17.655,17.655H70.621
		c-9.739-0.029-17.626-7.917-17.655-17.655v-70.621H459.034z"/>
	<path style="fill:#CB8252;" d="M317.793,432.552h167.724c9.739-0.029,17.626-7.917,17.655-17.655v-8.828
		c-0.029-9.739-7.917-17.626-17.655-17.655H26.483c-9.739,0.029-17.626,7.917-17.655,17.655v8.828
		c0.029,9.739,7.917,17.626,17.655,17.655h163.31"/>
	<path style="fill:#59474E;" d="M176.552,317.793h158.897c9.751,0,17.655,7.905,17.655,17.655v70.621H158.897v-70.621
		C158.897,325.698,166.801,317.793,176.552,317.793z"/>
	<polygon style="fill:#DF4D60;" points="123.586,388.414 256,476.69 379.586,388.414 	"/>
</g>
</svg>
