<svg version="1.1" id="Capa_1" xmlns="http://www.w3.org/2000/svg" xmlns:xlink="http://www.w3.org/1999/xlink" x="0px" y="0px"
	 viewBox="0 0 468.296 468.296" style="enable-background:new 0 0 468.296 468.296;" xml:space="preserve">
<g>
	<path style="fill:#2F4859;" d="M65.57,19.005l32.131,110.097l83.71-59.082L88.439,2.864C77.019-5.385,61.623,5.481,65.57,19.005z"
		/>
	<path style="fill:#2F4859;" d="M402.726,19.005l-32.131,110.097l-83.71-59.082l92.972-67.155
		C391.277-5.385,406.673,5.481,402.726,19.005z"/>
</g>
<path style="fill:#3A556A;" d="M458.013,270.197c-18.959-15.91-35.422-34.787-48.606-55.732c11.501-4.564,23.002-9.127,34.504-13.69
	c-29.852-31.559-55.699-66.904-76.705-104.929c-4.285-7.757-9.148-15.234-15.213-21.696c-33.605-35.804-70.5-19.297-100.855,4.191
	c-10.057,7.782-23.924,7.782-33.981,0c-30.351-23.485-67.238-39.991-100.842-4.207c-6.067,6.461-10.931,13.937-15.216,21.694
	c-21.009,38.031-46.859,73.382-76.714,104.945c11.501,4.563,23.002,9.127,34.503,13.69c-13.184,20.945-29.647,39.822-48.605,55.732
	c8.556,1.829,16.449,6.619,22.02,13.364c-7.025,11.17-14.052,22.341-21.078,33.511c9.741,6.992,22.303,9.925,34.133,7.97
	c-6.074,7.654-5.437,19.811,1.404,26.788c6.842,6.977,18.983,7.852,26.755,1.929c-3.597,5.54-5.576,12.119-5.629,18.724
	c17.334,1.759,35.034-0.165,51.584-5.609c15.329,43.259,58.578,79.61,101.958,98.744c8.094,3.57,17.34,3.57,25.435,0
	c43.379-19.134,86.627-55.485,101.956-98.744c16.552,5.444,34.25,7.368,51.584,5.609c-0.054-6.605-2.03-13.184-5.629-18.724
	c7.772,5.923,19.914,5.047,26.755-1.929c6.841-6.977,7.479-19.134,1.404-26.788c11.83,1.955,24.393-0.979,34.134-7.97
	c-7.027-11.17-14.052-22.341-21.079-33.511C441.564,276.816,449.457,272.026,458.013,270.197z"/>
<path style="fill:#FCD462;" d="M349.905,218.128c0,25.912-20.979,46.892-46.892,46.892c-25.849,0-46.767-20.917-46.829-46.767
	l9.991-6.744l45.331-30.595l9.116-6.181C337.793,181.663,349.905,198.459,349.905,218.128z"/>
<path style="fill:#44C4A1;" d="M326.116,206.701c0,16.671-13.55,30.221-30.22,30.221c-15.048,0-27.473-11.052-29.721-25.413
	l45.331-30.595C320.247,186.159,326.116,195.712,326.116,206.701z"/>
<path style="fill:#2F4859;" d="M288.937,217.661c-7.25,0-13.848-3.797-17.671-9.594l35.21-23.764
	c2.424,3.468,3.764,7.642,3.764,12.061C310.24,208.108,300.683,217.661,288.937,217.661z"/>
<g>
	<circle style="fill:#D5D6DB;" cx="307.938" cy="205.976" r="7.099"/>
	<circle style="fill:#D5D6DB;" cx="282.925" cy="215.604" r="5.769"/>
</g>
<path style="fill:#FCD462;" d="M118.391,218.128c0,25.912,20.979,46.892,46.892,46.892c25.849,0,46.767-20.917,46.829-46.767
	l-9.991-6.744l-45.331-30.595l-9.116-6.181C130.503,181.663,118.391,198.459,118.391,218.128z"/>
<path style="fill:#44C4A1;" d="M142.18,206.701c0,16.671,13.55,30.221,30.22,30.221c15.048,0,27.473-11.052,29.721-25.413
	l-45.331-30.595C148.049,186.159,142.18,195.712,142.18,206.701z"/>
<path style="fill:#2F4859;" d="M179.359,217.661c7.25,0,13.848-3.797,17.671-9.594l-35.21-23.764
	c-2.424,3.468-3.764,7.642-3.764,12.061C158.056,208.108,167.613,217.661,179.359,217.661z"/>
<g>
	<circle style="fill:#D5D6DB;" cx="160.345" cy="205.976" r="7.099"/>
	<circle style="fill:#D5D6DB;" cx="185.383" cy="215.604" r="5.769"/>
</g>
<path style="fill:#E56353;" d="M232.414,279.011c-7.168-1.192-34.182-4.276-35.705,16.603c-0.101,1.379,0.124,2.757,0.558,4.07
	c1.976,5.98,9.365,22.868,32.052,33.296c3.058,1.406,6.6,1.406,9.658,0c22.688-10.428,30.077-27.316,32.053-33.296
	c0.434-1.313,0.658-2.691,0.558-4.07c-1.523-20.879-28.538-17.795-35.706-16.603C234.725,279.203,233.571,279.203,232.414,279.011z"
	/>
<g>
	<ellipse style="fill:#2F4859;" cx="247.385" cy="300.29" rx="9.179" ry="13.262"/>
	<ellipse style="fill:#2F4859;" cx="220.917" cy="300.29" rx="9.179" ry="13.262"/>
	<path style="fill:#2F4859;" d="M285.062,387.525c0,0-3.684,11.239-15.047,21.729c-7.867,7.181-19.357,14.049-35.84,16.609
		c-16.485-2.56-27.973-9.366-35.84-16.609c-11.427-10.49-15.111-21.729-15.111-21.729c-7.742-19.793,7.805-20.605,7.805-20.605
		h86.229C277.257,366.92,292.804,367.732,285.062,387.525z"/>
</g>
<path style="fill:#E56353;" d="M270.014,409.253c-2.248,1.998-4.745,3.996-7.556,5.869c-7.181,4.87-16.422,8.929-28.284,10.74
	c-11.864-1.873-21.168-5.869-28.348-10.74c-2.809-1.873-5.308-3.871-7.492-5.869c3.558-7.617,11.301-12.862,20.23-12.862
	c6.056,0,11.55,2.435,15.61,6.306c3.995-3.871,9.49-6.306,15.547-6.306C258.65,396.391,266.392,401.636,270.014,409.253z"/>
<path style="fill:#D15241;" d="M262.459,415.123c-7.181,4.87-16.422,8.929-28.284,10.74c-11.864-1.873-21.168-5.869-28.348-10.74
	c3.621-2.497,7.992-3.996,12.738-3.996c6.056,0,11.55,2.435,15.61,6.306c3.995-3.871,9.49-6.306,15.547-6.306
	C254.467,411.127,258.838,412.563,262.459,415.123z"/>
<g>
	<polygon style="fill:#E1E6E9;" points="212.508,366.92 192.777,390.896 192.777,366.92 	"/>
	<polygon style="fill:#E1E6E9;" points="275.508,366.92 275.508,390.896 255.778,366.92 	"/>
	<polygon style="fill:#E1E6E9;" points="232.863,366.92 232.863,374.537 226.931,381.468 220.999,374.537 220.999,366.92 	"/>
	<polygon style="fill:#E1E6E9;" points="247.286,366.92 247.286,374.537 241.354,381.468 235.423,374.537 235.423,366.92 	"/>
</g>
<g>
	<path style="fill:#64798A;" d="M327.161,171.012L249.2,223.658c-1.506,1.017-3.433-0.491-2.807-2.198l6.87-18.723
		c9.116-24.726,34.029-39.899,60.191-36.714l12.886,1.577C328.06,167.81,328.597,170.042,327.161,171.012z"/>
	<path style="fill:#64798A;" d="M141.135,171.012l77.961,52.646c1.506,1.017,3.433-0.491,2.807-2.198l-6.87-18.723
		c-9.116-24.726-34.029-39.899-60.191-36.714l-12.886,1.577C140.236,167.81,139.699,170.042,141.135,171.012z"/>
</g>
</svg>
