<svg xmlns="http://www.w3.org/2000/svg" version="1.1" xmlns:xlink="http://www.w3.org/1999/xlink" width="512" height="512" x="0" y="0" viewBox="0 0 512 512" style="enable-background:new 0 0 512 512" xml:space="preserve" class="">
	<g>
		<path d="M236.951 384.882c-9.271-12.41-19.414-24.391-29.23-35.985-13.74-16.229-27.948-33.011-39.712-50.972-4.02-6.136-7.898-12.625-11.649-18.899l-.09-.15c-10.54-17.642-21.439-35.886-37.302-49.817-3.583-3.147-6.872-6.462-10.072-9.689-3.836-3.869-7.801-7.869-12.397-11.703-4.181-3.49-7.473-6.845-10.357-10.559-.082-.108-8.448-10.758-17.208-10.179l-6.016.388 2.047 5.67c2.138 5.92 6.232 11.448 10.194 16.797l.074.1c1.601 2.162 3.113 4.204 4.399 6.157l.926 1.405c7.486 11.36 15.01 22.699 22.561 34.079 21.363 32.194 43.453 65.485 64.289 98.757l.755 1.208c11.114 17.753 22.606 36.11 39.776 48.956 2.163 1.618 4.406 3.139 6.61 4.633 5.072 3.437 9.862 6.683 13.507 10.961 4.104 4.813 6.797 11.104 9.406 17.198l.479 1.118a538.363 538.363 0 0 0 39.819 75.534c.855 1.349 2.281 2.111 3.796 2.111.454 0 .918-.069 1.375-.21a4.48 4.48 0 0 0 3.18-4.499c-1.522-39.592-18.063-80.777-49.16-122.41zm38.056 103.02a530.303 530.303 0 0 1-28.742-57.122l-.475-1.109c-2.871-6.708-5.84-13.644-10.839-19.51-4.44-5.208-9.97-8.955-15.321-12.582-2.088-1.414-4.248-2.876-6.265-4.387-15.821-11.837-26.856-29.468-37.529-46.518l-.751-1.2c-20.861-33.313-42.944-66.595-64.3-98.781l-.144-.218a12734.925 12734.925 0 0 1-22.519-34.016l-.105-.159c.858.771 1.75 1.543 2.681 2.319 4.259 3.554 7.906 7.232 11.768 11.127 3.291 3.319 6.694 6.75 10.527 10.118 14.797 12.994 25.323 30.615 35.504 47.656 3.822 6.398 7.775 13.014 11.936 19.369 12.069 18.426 26.461 35.426 40.382 51.868 9.719 11.48 19.769 23.35 28.88 35.546 24.76 33.149 39.974 65.933 45.312 97.599zM374.508 478.955c-4.545-5.931-5.485-12.134-6.578-19.344-.723-4.763-1.471-9.687-3.301-15.032-1.662-4.854-5.426-9.659-9.083-14.327-3.165-4.035-6.436-8.208-7.613-11.603-4.426-12.754-10.878-24.752-17.189-35.817a728.702 728.702 0 0 0-41.028-63.918c-14.895-20.733-31.099-40.94-46.815-60.542-3.38-4.215-6.875-8.574-11.324-12.206-3.477-2.839-7.283-5.019-10.983-7.138-3.559-2.038-6.919-3.964-9.841-6.371-5.865-4.83-10.116-11.847-14.23-18.636-.827-1.364-1.652-2.725-2.49-4.073-6.699-10.773-14.467-20.915-21.988-30.736l-24.45-31.923c-6.752-8.817-13.735-17.933-21.482-26.315-11.825-12.79-25.915-27.058-40.763-35.915a4.52 4.52 0 0 0-5.004.242 4.52 4.52 0 0 0-1.719 4.706c1.035 4.305 3.98 7.917 6.59 11.118.657.806 1.295 1.587 1.862 2.341l38.322 50.998c5.26 7 10.699 14.238 14.464 22.08 1.435 2.987 2.694 6.212 3.921 9.353 1.807 4.627 3.675 9.413 6.267 13.941 2.912 5.087 6.548 9.538 10.064 13.842l.066.081c10.207 12.498 20.761 25.421 30.966 38.326 24.085 30.454 47.414 62.314 70.003 93.163l80.031 109.294c7.895 10.782 16.06 21.931 26.881 30.685a4.541 4.541 0 0 0 2.85 1.01c1.19 0 2.313-.458 3.161-1.287a4.533 4.533 0 0 0 .433-5.997zm-269.58-366.808c5.206 5.017 10.099 10.184 14.532 14.979 7.46 8.069 14.314 17.018 20.942 25.673l24.45 31.922c7.38 9.633 15.01 19.594 21.489 30.012.764 1.228 1.517 2.47 2.271 3.713l.166.274c4.505 7.434 9.163 15.12 16.215 20.93 3.516 2.897 7.377 5.107 11.11 7.245 3.52 2.016 6.844 3.921 9.745 6.288 3.712 3.031 6.906 7.016 10.018 10.897 15.601 19.456 31.734 39.575 46.495 60.122a719.56 719.56 0 0 1 40.514 63.12c6.098 10.69 12.317 22.244 16.499 34.299 1.671 4.818 5.415 9.596 9.042 14.223 3.183 4.061 6.474 8.26 7.643 11.673 1.567 4.572 2.252 9.082 2.92 13.481.125.825.251 1.656.384 2.491-3.809-4.649-7.384-9.531-10.874-14.296l-80.031-109.291c-22.609-30.88-45.988-62.809-70.204-93.431-10.234-12.94-20.796-25.873-31.01-38.381l-.112-.137c-3.285-4.022-6.683-8.181-9.218-12.611-2.26-3.949-3.927-8.218-5.691-12.738-1.281-3.28-2.606-6.672-4.193-9.977-4.154-8.651-9.866-16.252-15.39-23.603zM417.782 367.201c-20.097-61.839-65.665-115.604-109.742-167.609-11.717-13.822-22.785-26.877-33.455-40.169l-46.753-58.244c-3.633-4.526-7.39-9.205-12.058-13.175-3.273-2.783-6.821-5.065-10.252-7.271l-.102-.065c-1.218-.784-2.437-1.567-3.639-2.374-10.671-7.154-20.302-16.241-29.625-25.038-1.954-1.843-3.906-3.686-5.87-5.514-5.741-5.343-11.967-10.982-18.592-16.017-.52-.394-1.166-.908-1.906-1.498l-.091-.072c-8.433-6.719-15.893-12.139-21.829-10.392a4.543 4.543 0 0 0-3.148 5.312c3.145 14.384 15.901 28.332 26.15 39.539l.331.362c1.326 1.451 2.6 2.846 3.792 4.18 3.072 3.438 6.236 6.882 9.296 10.212l.103.112c8.456 9.201 17.199 18.716 24.696 28.851 5.557 7.513 10.623 15.653 15.525 23.529 6.232 10.01 12.675 20.36 20.306 29.777 5.355 6.61 11.316 12.786 17.101 18.779 8.735 9.047 17.767 18.401 24.361 29.049 2.239 3.619 4.284 7.53 6.261 11.312l1.758-.919-1.694 1.042c1.62 3.102 3.295 6.309 5.11 9.428 6.02 10.345 13.575 19.727 20.256 28.022 20.416 25.351 42.572 52.291 66.244 77.533.92.983 1.843 1.962 2.766 2.942l.307.327c5.428 5.757 11.041 11.709 15.991 17.925 10.974 13.778 19.316 29.53 26.919 44.483.855 1.682 2.45 2.686 4.264 2.686a4.63 4.63 0 0 0 1.798-.357c2.306-.953 3.935-2.673 5.502-17.328.579-5.361 1.332-15.01-.081-19.36zm-9.026 19.407c-6.054-11.402-13.331-23.925-22.289-35.173-5.192-6.517-10.94-12.612-16.498-18.505l-3.046-3.238c-23.465-25.021-45.491-51.805-65.797-77.021-6.467-8.029-13.797-17.129-19.481-26.896-1.733-2.978-3.36-6.095-4.935-9.11-2.06-3.945-4.19-8.025-6.629-11.965-7.106-11.477-16.479-21.185-25.545-30.576-5.636-5.839-11.465-11.876-16.578-18.187-7.278-8.982-13.57-19.09-19.655-28.865-4.993-8.022-10.156-16.317-15.931-24.125-7.774-10.511-16.679-20.202-25.31-29.596-2.907-3.162-6.202-6.747-9.314-10.231a536.585 536.585 0 0 0-4.192-4.617c-7.176-7.846-15.822-17.3-20.689-26.662 2.88 1.968 5.758 4.261 7.185 5.398.844.672 1.578 1.256 2.163 1.701 6.311 4.795 12.331 10.251 17.898 15.433 1.947 1.812 3.886 3.641 5.825 5.472 9.583 9.044 19.492 18.396 30.797 25.974 1.272.853 2.563 1.683 3.888 2.534 3.328 2.14 6.471 4.161 9.281 6.551 4.014 3.413 7.497 7.754 10.867 11.951l46.75 58.238c10.733 13.373 21.845 26.48 33.608 40.357 43.505 51.326 88.491 104.4 108.039 164.551.726 2.237.402 9.559-.412 16.607zM429.003 256.894 391.39 189.43c-8.875-15.918-18.051-32.378-29.765-47.022-7.529-9.414-16.073-18.024-24.371-26.388l-47.941-48.297C278.039 56.364 266.381 44.619 251.64 36.8c-4.014-2.129-8.181-3.916-12.253-5.661-5.518-2.365-10.73-4.6-15.511-7.613-1.098-.691-3.781-3.005-6.623-5.455-14.65-12.632-25.561-21.243-32.618-16.958-2.187 1.328-3.498 3.555-3.596 6.111-.406 10.584 22.687 28.341 22.925 28.514 4.313 3.095 8.777 6.111 13.11 9.037 12.569 8.49 25.565 17.27 35.491 28.587 4.108 4.684 7.826 9.964 11.422 15.07 2.206 3.133 4.488 6.373 6.884 9.517 9.944 13.043 21.896 24.461 33.473 35.519 2.463 2.353 4.926 4.705 7.371 7.073 28.157 27.276 50.401 53.413 68.002 79.903 6.727 10.122 13.068 20.756 19.205 31.048l41.561 69.69a4.55 4.55 0 0 0 3.89 2.209c.343 0 .688-.04 1.025-.118a4.512 4.512 0 0 0 3.488-4.046c1.884-23.295-10.185-44.941-19.883-62.333zm9.084 42.584-31.445-52.73c-6.17-10.346-12.551-21.044-19.38-31.32-17.968-27.039-40.619-53.664-69.246-81.395a1261.258 1261.258 0 0 0-6.966-6.687l-.452-.431c-11.308-10.8-23.002-21.968-32.524-34.459-2.272-2.981-4.494-6.134-6.689-9.251-3.732-5.297-7.591-10.776-12.011-15.817-10.7-12.198-24.191-21.312-37.247-30.131l-.13-.088c-4.222-2.853-8.588-5.804-12.753-8.792-4.905-3.521-15.344-13.666-18.338-18.68 1.211.532 3.018 1.507 5.607 3.295 4.91 3.389 10.402 8.123 14.824 11.937 3.374 2.909 6.041 5.208 7.709 6.259 5.379 3.39 11.161 5.87 16.785 8.281 3.864 1.656 7.86 3.368 11.563 5.331 13.524 7.174 24.688 18.422 35.492 29.308l47.951 48.308c8.102 8.163 16.479 16.604 23.713 25.648 11.248 14.065 20.236 30.189 28.929 45.783l37.613 67.462c6.176 11.074 13.561 24.322 16.995 38.169z" fill="#000000" opacity="1" data-original="#000000" class="">
		</path>
	</g>
</svg>
