<svg width="237" height="245" viewBox="0 0 237 245" fill="none" xmlns="http://www.w3.org/2000/svg">
<path d="M236.111 118.221C235.137 105.509 229.437 93.4343 220.364 84.533C221.603 82.6863 222.732 80.745 223.755 78.7104C227.923 70.1784 229.673 61.1757 229.004 51.705C228.916 51.2077 228.828 50.709 228.741 50.2117C228.004 41.1837 225.115 32.909 220.079 25.385C212.479 14.1184 200.572 6.23438 187.225 3.63971C173.875 1.04504 159.883 3.89438 148.615 11.4957C147.179 12.4637 145.793 13.5103 144.457 14.625C143.683 13.841 142.889 13.073 142.057 12.3424L131.375 5.16771C123.189 1.16904 114.556 -0.508316 105.469 0.133011C101.272 1.01567 97.0733 1.89833 92.876 2.78099C84.7133 5.69032 77.7547 10.385 72 16.8637C71.064 17.9263 70.1867 19.0344 69.352 20.1704C64.0534 20.049 58.8227 20.8597 53.664 22.6464C46.3267 25.261 40.068 29.481 34.8947 35.3064C29.604 41.369 26.1787 48.3503 24.6173 56.253C24.3587 57.6023 24.184 58.945 24.0467 60.285C21.1534 62.5984 18.4267 65.1597 15.8947 68.009C8.32401 76.6851 3.4187 86.6797 1.18536 97.989C-0.981302 109.313 -0.175992 120.416 3.59467 131.297C3.76001 131.744 3.92667 132.19 4.092 132.636C7.80267 143.054 13.7933 151.936 22.0626 159.28C30.668 166.789 40.5773 171.652 51.7947 173.869C63.0253 176.016 74.036 175.218 84.8266 171.48C87.448 170.162 90.0667 168.845 92.688 167.528C93.9774 169.044 95.3747 170.473 96.8787 171.797C105.777 179.632 116.087 182.06 127.636 182.06C139.109 182.06 149.185 176.093 156.149 167.44C165.573 173.033 176.06 174.938 187.519 174.938C200.708 174.938 214.657 166.757 223.123 157.142C232.46 146.536 237.189 132.313 236.111 118.221Z" fill="#79BA44"/>
<path d="M63.9947 175.042C59.9573 175.042 55.8907 174.652 51.7947 173.869C40.5773 171.652 30.668 166.789 22.0626 159.28C13.7933 151.936 7.80266 143.054 4.09199 132.636C3.92666 132.19 3.75999 131.744 3.59466 131.297C1.19866 124.385 0.00133333 117.385 0 110.294C0.004 106.242 0.398685 102.16 1.18535 98.049C3.41868 86.7397 8.324 76.745 15.8947 68.069C18.4267 65.2197 21.1533 62.6584 24.0467 60.345C24.184 59.005 24.3587 57.6623 24.6173 56.313C26.1787 48.4103 29.604 41.429 34.8947 35.3663C40.068 29.541 46.3267 25.321 53.664 22.7064C58.488 21.0357 63.3734 20.2183 68.3214 20.2183C68.664 20.2183 69.008 20.2223 69.352 20.2303C70.1867 19.0943 71.064 17.9863 72 16.9237C77.7547 10.4437 84.7133 5.75034 92.876 2.841C94.468 2.50633 96.06 2.17169 97.6533 1.83704C93.2547 7.9357 89.6413 14.6223 87.0053 21.7543C78.076 25.8263 69.852 31.461 62.8227 38.489C58.5027 44.0823 54.18 49.6757 49.8587 55.2677C42.3587 68.1984 38.5866 82.1464 38.54 97.1117C38.4946 97.7144 38.484 98.3236 38.4547 98.9277C39.444 106.281 40.432 113.634 41.42 120.99C45.3627 135.048 52.4773 147.256 62.7626 157.61C68.6293 163.477 75.328 168.381 82.5733 172.216C76.4506 174.101 70.2587 175.042 63.9947 175.042Z" fill="#448030"/>
<path d="M116.548 244.38L129.881 111.046H135.215L148.548 244.38H116.548Z" fill="#503024"/>
<path d="M129.941 152.938L154.829 135.908L156.399 137.48L139.368 162.368L129.941 152.938Z" fill="#503024"/>
<path d="M129.941 191.701L112.911 166.813L114.481 165.241L139.368 182.272L129.941 191.701Z" fill="#503024"/>
</svg>
