<svg width="145" height="266" viewBox="0 0 145 266" fill="none" xmlns="http://www.w3.org/2000/svg">
<path d="M133.977 139.772C133.407 132.333 131.375 125.096 128.109 118.461C139.975 104.12 145.948 85.3761 144.523 66.7841C143.091 48.0814 134.203 30.3788 120.132 17.9934C114.944 14.5068 109.751 11.0201 104.56 7.53477C92.6294 1.70677 80.0427 -0.741241 66.7973 0.194763C60.6773 1.48143 54.5587 2.76942 48.4401 4.05609C36.5387 8.2961 26.3947 15.1374 18.0067 24.5841C5.20805 39.1188 -1.27065 58.6081 0.208021 77.9201C1.51869 95.0414 9.09204 111.309 21.1547 123.444C17.9774 131.589 16.4987 140.308 17.1481 148.787C18.0014 159.928 22.1294 170.621 28.7854 179.495C26.1494 186.381 24.928 193.736 25.4747 200.891C27.6854 229.73 52.0774 247.113 79.4267 247.113C106.82 247.113 127.616 218.849 125.649 193.161C125.259 188.063 124.164 183.332 122.492 178.983C130.596 167.521 135.016 153.343 133.977 139.772Z" fill="#79BA44"/>
<path d="M68.9014 246.229C47.8894 242.673 30.3787 228.478 26.24 206.676L26.2387 206.675C26.2347 206.652 26.2307 206.631 26.2267 206.608C26.2267 206.605 26.2267 206.607 26.2253 206.605C26.2213 206.581 26.2173 206.561 26.2133 206.539C26.2133 206.537 26.2134 206.535 26.212 206.533C26.196 206.448 26.18 206.36 26.1654 206.275C26.164 206.268 26.1627 206.261 26.1613 206.255C26.1587 206.241 26.1561 206.224 26.1534 206.209C26.1507 206.2 26.1494 206.189 26.148 206.179C26.1454 206.165 26.1427 206.152 26.14 206.137C26.1387 206.127 26.136 206.116 26.1347 206.104C26.132 206.091 26.1294 206.076 26.1267 206.064C26.1254 206.052 26.1227 206.039 26.1201 206.027C26.1187 206.013 26.116 206.003 26.1133 205.989C26.112 205.976 26.1094 205.964 26.1067 205.951C26.1054 205.939 26.1027 205.925 26.1 205.913C26.0973 205.892 26.0934 205.871 26.0894 205.849C26.0894 205.845 26.088 205.844 26.088 205.841C26.084 205.816 26.08 205.791 26.0747 205.765C26.0733 205.757 26.072 205.747 26.0707 205.739C26.068 205.721 26.0654 205.705 26.0627 205.689C26.06 205.679 26.0587 205.671 26.0574 205.661C26.0547 205.645 26.052 205.628 26.0494 205.612C26.048 205.603 26.0453 205.593 26.044 205.583C26.0413 205.567 26.0387 205.551 26.036 205.533C26.0347 205.525 26.0334 205.516 26.032 205.507C26.0294 205.491 26.0254 205.473 26.0227 205.457C26.0214 205.447 26.02 205.44 26.0187 205.429C26.016 205.409 26.012 205.387 26.008 205.367C26.008 205.363 26.0067 205.36 26.0067 205.355C25.9974 205.301 25.9894 205.251 25.9814 205.196C25.98 205.195 25.98 205.193 25.98 205.192C25.976 205.168 25.972 205.141 25.968 205.117C25.968 205.115 25.9667 205.111 25.9667 205.108C25.9627 205.084 25.9601 205.063 25.9561 205.039C25.9547 205.033 25.9547 205.032 25.9547 205.027C25.9507 205.004 25.9467 204.981 25.944 204.959C25.9427 204.955 25.9427 204.951 25.9413 204.948C25.9173 204.788 25.8933 204.625 25.8693 204.467C25.8693 204.464 25.8693 204.461 25.8693 204.46C25.8653 204.435 25.8614 204.408 25.8574 204.383V204.381C25.7374 203.539 25.636 202.684 25.5547 201.82C25.5534 201.817 25.5534 201.813 25.5534 201.811C25.5507 201.785 25.5493 201.764 25.5467 201.739C25.5467 201.736 25.5454 201.729 25.5454 201.727C25.544 201.704 25.5413 201.68 25.5387 201.657C25.5387 201.655 25.5387 201.647 25.5374 201.644C25.536 201.617 25.5333 201.593 25.5307 201.567C25.5307 201.565 25.5307 201.565 25.5307 201.564C25.524 201.483 25.516 201.401 25.5094 201.319C25.5094 201.312 25.508 201.304 25.508 201.297C25.5067 201.279 25.504 201.257 25.5027 201.239C25.5013 201.229 25.5014 201.223 25.5014 201.213C25.4987 201.196 25.4974 201.177 25.496 201.16C25.496 201.149 25.4947 201.141 25.4934 201.131C25.492 201.115 25.4907 201.095 25.4894 201.079C25.4894 201.071 25.488 201.06 25.488 201.051C25.4867 201.033 25.484 201.012 25.4827 200.995C25.4827 200.985 25.4814 200.98 25.4814 200.971C25.4787 200.944 25.4773 200.917 25.4747 200.891C25.3893 199.773 25.3467 198.651 25.3467 197.525C25.344 191.449 26.5614 185.305 28.7854 179.495C22.1294 170.621 18.0014 159.928 17.148 148.787C17.0467 147.463 16.9973 146.132 16.9973 144.797C17.0027 137.597 18.4734 130.316 21.1547 123.444C9.09202 111.309 1.51867 95.0414 0.208008 77.92C0.0693414 76.1094 2.07987e-07 74.2974 2.07987e-07 72.488C-0.00133313 54.9974 6.40804 37.756 18.0067 24.584C26.3947 15.1374 36.5387 8.29604 48.44 4.05603C54.5587 2.76936 60.6773 1.48137 66.7973 0.194702C68.6307 0.0653687 70.4494 4.57764e-05 72.2574 4.57764e-05C83.512 4.57764e-05 94.28 2.51338 104.56 7.53471C104.747 7.66138 104.935 7.7867 105.124 7.91336C103.549 7.79202 101.965 7.71069 100.365 7.71069C65.5867 7.71069 36.5667 36.7307 36.5667 71.5094C36.5667 92.3867 47.0294 111.176 62.9094 122.873C56.5467 132.751 52.816 144.424 52.816 156.843C52.816 166.236 54.9574 175.201 58.7454 183.289C55.9147 190.417 54.3374 198.139 54.3374 206.176C54.3374 221.26 59.8347 235.251 68.9014 246.229Z" fill="#448030"/>
<path d="M60.7841 265.525L74.1174 86.8587H79.4507L92.7841 265.525H60.7841Z" fill="#503024"/>
<path d="M74.1786 174.085L99.0652 157.053L100.635 158.624L83.6052 183.512L74.1786 174.085Z" fill="#503024"/>
<path d="M74.1786 212.845L57.1466 187.957L58.7173 186.387L83.6053 203.419L74.1786 212.845Z" fill="#503024"/>
<path d="M74.1786 152.845L57.1466 127.957L58.7173 126.387L83.6053 143.419L74.1786 152.845Z" fill="#503024"/>
</svg>
