<svg width="150" height="247" viewBox="0 0 150 247" fill="none" xmlns="http://www.w3.org/2000/svg">
<path d="M100.096 9.31703C92.8982 0.0330353 81.6955 -0.526962 74.6462 0.245026C67.5955 -0.526962 56.3942 0.0330353 49.1969 9.31703C29.8076 34.3264 -64.4356 205.82 74.6462 204.477C213.728 205.82 119.484 34.3264 100.096 9.31703Z" fill="#79BA44"/>
<path d="M61.6329 204.05C-58.2887 194.654 30.4476 33.5023 49.1969 9.31697C49.2103 9.29964 49.2236 9.28099 49.2369 9.26498C49.2396 9.26099 49.2422 9.25697 49.2449 9.2543C49.2569 9.23964 49.2676 9.22496 49.2796 9.2103C49.2809 9.20763 49.2836 9.20499 49.2863 9.20232C49.2996 9.18498 49.3129 9.16763 49.3263 9.15164V9.1503C52.9756 4.52763 57.6289 2.11298 62.2436 0.947632C53.5929 11.4303 47.4823 23.4676 42.1583 35.3103C35.3369 50.481 33.1916 66.8663 30.7383 82.8343C25.6863 115.708 30.8116 148.6 44.3076 179.686C48.4303 189.182 53.6543 197.405 61.6329 204.05Z" fill="#448030"/>
<path d="M62.0129 246.353L75.3462 67.6864H80.6796L94.0129 246.353H62.0129Z" fill="#503024"/>
<path d="M75.4076 154.913L100.294 137.881L101.865 139.452L84.8356 164.34L75.4076 154.913Z" fill="#503024"/>
<path d="M75.4076 193.673L58.3756 168.785L59.9476 167.214L84.8356 184.246L75.4076 193.673Z" fill="#503024"/>
<path d="M75.4076 133.673L58.3756 108.785L59.9476 107.214L84.8356 124.246L75.4076 133.673Z" fill="#503024"/>
</svg>
