<svg width="237" height="281" viewBox="0 0 237 281" fill="none" xmlns="http://www.w3.org/2000/svg">
<path d="M236.311 140.145C235.283 126.715 228.9 114.001 218.795 105.107C215.299 102.028 211.627 99.6227 207.788 97.768C208.639 93.2973 208.936 88.7614 208.595 84.2974C207.515 70.1814 200.806 56.8227 190.188 47.4733C180.182 38.664 168.81 35.0854 156.219 34.2494C153.25 26.0427 148.25 18.5947 141.65 12.7827C130.567 3.02539 117.728 4.57764e-05 103.344 4.57764e-05C75.7469 4.57764e-05 54.6296 27.7267 55.4189 53.7227C43.7082 61.5614 35.3976 74.8787 33.0762 88.7667C25.3896 91.9014 18.7482 96.5893 13.1776 102.863C3.81089 113.5 -0.931766 127.764 0.152234 141.897C1.20023 155.585 7.70425 168.54 18.0016 177.605C21.8003 180.157 25.6003 182.708 29.4002 185.259C38.1309 189.525 47.3429 191.317 57.0376 190.631C61.5149 189.688 65.9936 188.747 70.4722 187.805C72.8162 186.971 75.0602 185.985 77.2176 184.873C77.9029 185.535 78.6002 186.183 79.3149 186.813C83.8736 189.875 88.4309 192.935 92.9896 195.995C103.464 201.113 114.515 203.263 126.144 202.44L142.262 199.049C148.618 196.785 154.395 193.663 159.61 189.708C168.363 194.347 178.015 195.967 188.488 195.967C216.831 195.967 238.347 166.725 236.311 140.145Z" fill="#1D2E10"/>
<path d="M53.0376 190.773C44.8016 190.773 36.9216 188.935 29.4002 185.259C25.6002 182.708 21.8002 180.157 18.0016 177.605C7.70424 168.54 1.20023 155.585 0.15223 141.897C0.0495634 140.572 0.000244425 139.247 0.000244425 137.923C-0.00108891 125.121 4.68956 112.503 13.1776 102.863C18.7482 96.5893 25.3896 91.9013 33.0762 88.7666C35.3976 74.8786 43.7082 61.5613 55.4189 53.7226C55.4042 53.24 55.3976 52.7573 55.3976 52.2747C55.4162 26.7067 76.2589 -1.52588e-05 103.344 -1.52588e-05C117.728 -1.52588e-05 130.567 3.02533 141.65 12.7827C143.223 14.168 144.699 15.6533 146.086 17.2133C91.3202 31.2733 49.8642 81.6973 49.8642 140.351C49.8642 157.872 53.5682 174.659 60.2176 189.961C59.5429 190.103 58.8696 190.245 58.1962 190.387C57.8096 190.468 57.4229 190.549 57.0376 190.631C55.6936 190.725 54.3616 190.773 53.0376 190.773Z" fill="#224018"/>
<path d="M110.114 280.525L123.447 147.192H128.78L142.114 280.525H110.114Z" fill="#281812"/>
<path d="M123.507 189.045L148.395 172.013L149.964 173.584L132.936 198.472L123.507 189.045Z" fill="#281812"/>
<path d="M123.508 227.805L106.476 202.917L108.048 201.347L132.935 218.379L123.508 227.805Z" fill="#281812"/>
</svg>
