<svg width="219" height="272" viewBox="0 0 219 272" fill="none" xmlns="http://www.w3.org/2000/svg">
<path d="M218.228 100.841C216.712 82.2808 210.776 65.2662 200.42 49.7982C194.462 43.0208 188.505 36.2422 182.548 29.4648C176.566 24.2435 170.2 19.7995 163.462 16.1102C152.553 9.33682 140.438 4.48354 127.589 1.98621C108.594 -1.64447 89.9718 -0.297852 71.7198 6.02748C54.1011 12.3048 39.0811 22.4355 26.6598 36.4195C7.71218 57.9422 -1.88208 86.7995 0.306984 115.393C1.84085 134.18 7.84857 151.4 18.3318 167.053C28.9198 182.637 42.6358 194.658 59.4784 203.118C67.1211 207.734 103.166 217.631 87.9958 212.954C88.5264 213.118 89.0424 213.209 89.5971 213.242C99.1811 214.306 108.782 214.861 118.4 214.91C118.702 214.913 119.005 214.872 119.305 214.834C128.877 213.668 138.276 210.921 147.669 208.898C165.078 202.697 179.918 192.686 192.19 178.868C210.912 157.604 220.392 129.093 218.228 100.841Z" fill="#1D2E10"/>
<path d="M91.6664 214.18C90.8998 214.18 65.7198 206.888 59.4785 203.118C42.6358 194.658 28.9198 182.637 18.3318 167.053C7.84857 151.4 1.84085 134.18 0.306987 115.393C0.101787 112.712 0.000183195 110.029 0.000183195 107.35C-0.000883471 81.4529 9.48912 55.9249 26.6598 36.4196C39.0811 22.4356 54.1011 12.3049 71.7198 6.02756C72.1798 5.86755 72.6398 5.71156 73.0998 5.55823C84.2384 1.85556 95.5131 0.0129089 106.928 0.0129089C109.56 0.0129089 112.201 0.110275 114.849 0.306274C72.3491 20.0676 42.2971 63.3849 42.2971 112.669C42.2971 154.074 63.5104 191.265 95.4944 213.818C93.6358 213.654 91.7771 213.481 89.9184 213.277C89.8118 213.265 89.7038 213.254 89.5971 213.242C89.0424 213.209 88.5265 213.118 87.9958 212.954C90.5825 213.752 91.6811 214.125 91.6838 214.174C91.6838 214.177 91.6784 214.18 91.6664 214.18Z" fill="#224018"/>
<path d="M93.2984 271.224L106.632 137.89H111.965L125.298 271.224H93.2984Z" fill="#281812"/>
<path d="M106.692 179.744L131.58 162.712L133.15 164.282L116.12 189.17L106.692 179.744Z" fill="#281812"/>
<path d="M106.692 218.504L89.6611 193.616L91.2331 192.045L116.12 209.077L106.692 218.504Z" fill="#281812"/>
</svg>
