<svg width="221" height="239" viewBox="0 0 221 239" fill="none" xmlns="http://www.w3.org/2000/svg">
<path d="M219.934 105.251C219.301 96.9547 216.142 89.0013 211.054 82.4907C214.099 75.8467 215.475 68.456 214.913 61.1053C214.058 49.936 208.75 39.364 200.347 31.9667C197.247 29.8854 194.147 27.8027 191.045 25.7213C185.578 23.0493 179.877 21.5787 173.946 21.2867C167.843 10.14 155.417 3.752 141.898 3.752C134.533 3.752 127.883 6.82666 122.662 11.616C119.677 9.612 116.691 7.60664 113.706 5.60265C104.837 1.26797 95.4779 -0.550674 85.6299 0.143982C81.0805 1.10132 76.5312 2.05865 71.9805 3.01599C63.1325 6.168 55.5912 11.2547 49.3539 18.2787C49.0485 18.6254 48.7539 18.9787 48.4579 19.3334C43.8605 17.8654 38.9605 17.3 33.7725 17.3C13.8138 17.3 -1.33946 37.8933 0.0938689 56.6107C0.799202 65.8093 5.07653 74.5227 11.8565 80.7573C8.3072 89.3573 6.7432 98.7614 7.4592 108.123C8.64187 123.549 15.9725 138.151 27.5765 148.367L40.4232 156.993C50.2632 161.801 60.6458 163.82 71.5712 163.048C72.0032 162.956 72.4352 162.867 72.8672 162.775C80.0485 167.896 88.1805 169.564 97.1645 169.564C104.158 169.564 110.562 167.051 115.882 162.984C119.309 163.184 122.735 163.385 126.16 163.585C133.216 169.013 141.263 170.756 150.202 170.756C163.064 170.756 173.831 161.813 179.075 150.504C179.759 150.523 180.449 150.532 181.142 150.532C204.133 150.532 221.587 126.812 219.934 105.251Z" fill="#1D2E10"/>
<path d="M97.1646 169.564C88.1805 169.564 80.0486 167.896 72.8672 162.775C72.4352 162.867 72.0032 162.956 71.5712 163.048C70.0592 163.155 68.5579 163.208 67.0672 163.208C57.7832 163.208 48.9019 161.136 40.4232 156.993L27.5765 148.367C15.9725 138.151 8.64188 123.549 7.45921 108.123C7.34454 106.624 7.28854 105.123 7.28987 103.625C7.29521 95.7694 8.87521 87.98 11.8565 80.7573C5.07654 74.5227 0.79921 65.8093 0.0938761 56.6106C0.0312095 55.788 0.000549316 54.9627 0.000549316 54.1347C0.00188265 36.1227 14.6899 17.3 33.7725 17.3C38.9605 17.3 43.8605 17.8654 48.4579 19.3334C48.7539 18.9787 49.0485 18.6254 49.3539 18.2787C55.5912 11.2547 63.1325 6.16798 71.9805 3.01599C76.5312 2.05865 81.0806 1.10132 85.6299 0.143982C86.0126 0.117325 86.3939 0.0946503 86.7752 0.074646C87.7472 0.0253143 88.7139 4.57764e-05 89.6765 4.57764e-05C93.8939 4.57764e-05 98.0192 0.475998 102.051 1.424C99.6712 4.024 97.4805 6.81337 95.5099 9.79202C79.9072 14.2454 66.4072 24.1254 57.2499 37.1867C43.9419 49.8974 35.5419 67.7214 35.5419 87.2227C35.5419 125.065 67.1219 156.645 104.965 156.645C107.094 156.645 109.201 156.531 111.286 156.335C115.321 159.148 119.654 161.552 124.227 163.472C123.959 163.456 123.69 163.44 123.422 163.425C120.909 163.277 118.395 163.131 115.882 162.984C110.562 167.051 104.158 169.564 97.1646 169.564Z" fill="#224018"/>
<path d="M105.913 238.668L119.246 105.335H124.579L137.913 238.668H105.913Z" fill="#281812"/>
<path d="M119.307 147.227L144.194 130.196L145.763 131.768L128.734 156.656L119.307 147.227Z" fill="#281812"/>
<path d="M119.307 185.989L102.275 161.101L103.847 159.529L128.734 176.56L119.307 185.989Z" fill="#281812"/>
</svg>
