<svg width="232" height="285" viewBox="0 0 232 285" fill="none" xmlns="http://www.w3.org/2000/svg">
<path d="M218.354 135.864C227.074 124.985 231.965 110.817 230.931 97.3133C229.874 83.5133 223.315 70.4507 212.934 61.3107C210.726 59.3667 208.45 57.6907 206.109 56.2387C206.186 54.9067 206.189 53.576 206.087 52.256C204.659 33.6 188.879 22.3533 171.187 22.3533C169.057 22.3533 166.99 22.624 165.002 23.1173C162.467 19.0667 159.353 15.372 155.739 12.1893C145.169 2.88399 132.923 0 119.206 0C104.129 0 91.0832 8.67868 82.8259 20.752C78.3206 19.804 73.6085 19.4173 68.6992 19.4173C44.2965 19.4173 25.4393 43.152 24.9113 66.2107C24.3073 66.5813 23.6993 66.6453 23.1113 67.0413L23.0819 66.7574C19.4126 69.424 16.0619 72.48 13.0272 75.896C3.76854 86.412 -0.919409 100.663 0.149924 114.633C1.18726 128.164 7.61654 141.045 17.7965 150.005L17.8045 150.051C21.6365 152.879 25.1166 155.179 28.8499 157.487L29.0632 157.637L29.1272 157.671C29.4499 157.868 29.7593 158.068 30.0859 158.268L30.4179 158.417C30.3926 159.849 30.4179 161.281 30.5259 162.703C31.5419 175.963 37.8433 188.513 47.8193 197.296C58.7593 206.929 71.4339 209.915 85.6352 209.915C92.6459 209.915 99.2352 208.101 105.139 204.971C113.674 209.82 123.137 211.483 133.447 211.483C141.882 211.483 149.669 208.724 156.319 204.167C163.629 207.325 171.566 208.469 180.087 208.469C206.547 208.469 226.634 181.168 224.734 156.355C224.179 149.113 221.95 142.101 218.354 135.864Z" fill="#1D2E10"/>
<path d="M85.6352 209.915C71.4339 209.915 58.7593 206.929 47.8193 197.296C37.8433 188.513 31.5419 175.963 30.5259 162.703C30.4433 161.613 30.4086 160.52 30.4086 159.424C30.4086 159.089 30.4126 158.753 30.4179 158.417L30.086 158.268C29.7593 158.068 29.4499 157.868 29.1272 157.671L29.0632 157.637L28.85 157.487C25.1166 155.179 21.6366 152.879 17.8046 150.051L17.7966 150.005C7.61657 141.045 1.18729 128.164 0.149959 114.633C0.0499593 113.324 0.000610352 112.012 0.000610352 110.7C0.000610352 98.0227 4.63657 85.4267 13.0272 75.896C16.0619 72.48 19.4126 69.424 23.0819 66.7574L23.1113 67.0413C23.6993 66.6453 24.3073 66.5813 24.9113 66.2107C25.4393 43.152 44.2966 19.4173 68.6992 19.4173C73.6086 19.4173 78.3206 19.804 82.8259 20.752C91.0833 8.6787 104.129 0 119.206 0C132.923 0 145.169 2.88399 155.739 12.1893C155.766 12.2133 155.793 12.2374 155.819 12.26C155.825 12.2654 155.831 12.2707 155.837 12.276C155.857 12.2934 155.875 12.3107 155.894 12.328C155.906 12.3373 155.918 12.348 155.93 12.3587C155.941 12.368 155.951 12.3773 155.962 12.3867C158.849 14.9613 161.391 17.8787 163.589 21.0307C162.85 21.8667 162.134 22.724 161.439 23.5973C159.757 23.4587 158.066 23.3627 156.353 23.3627C134.733 23.3627 115.353 34.652 103.871 51.5654C70.2126 52.5574 42.45 80.8933 42.45 114.756C42.45 132.009 49.6566 147.832 61.178 159.336C66.1926 181.047 82.6139 198.793 103.595 205.72C98.1779 208.333 92.2352 209.867 85.9352 209.913C85.9339 209.913 85.9339 209.913 85.9326 209.913C85.9086 209.913 85.8872 209.913 85.8632 209.915C85.8566 209.915 85.8499 209.915 85.8432 209.915C85.8259 209.915 85.8073 209.915 85.7886 209.915C85.7766 209.915 85.7633 209.915 85.75 209.915C85.738 209.915 85.7246 209.915 85.7126 209.915C85.6872 209.915 85.6606 209.915 85.6352 209.915Z" fill="#224018"/>
<path d="M111.285 284.811L124.618 151.477H129.951L143.285 284.811H111.285Z" fill="#281812"/>
<path d="M124.678 193.331L149.566 176.299L151.135 177.869L134.105 202.757L124.678 193.331Z" fill="#281812"/>
<path d="M124.678 232.091L107.647 207.203L109.218 205.632L134.105 222.664L124.678 232.091Z" fill="#281812"/>
</svg>
