<svg width="163" height="268" viewBox="0 0 163 268" fill="none" xmlns="http://www.w3.org/2000/svg">
<path d="M133.172 174.089C129.147 167.152 132.413 161.056 140.433 161.056H141.985C150.005 161.056 153.273 155.804 149.247 148.865L129.765 115.508C125.74 108.573 127.652 103.001 134.013 103.001C140.375 103.001 142.287 97.3799 138.263 90.4426L120.832 60.4372C116.807 53.4999 110.22 42.1639 106.193 35.2279L88.7627 5.19989C84.7387 -1.73611 78.1507 -1.7321 74.1254 5.20523L56.6947 35.2399C52.6693 42.1745 46.0827 53.5252 42.0574 60.4626L24.6267 90.4985C20.6 97.4332 22.512 103.108 28.8747 103.108C35.2374 103.108 37.1494 108.783 33.124 115.719L13.64 148.868C9.61469 155.804 12.8827 161.056 20.9027 161.056H22.456C30.476 161.056 33.7427 167.152 29.7174 174.089L1.72404 222.719C-2.30129 229.656 0.966707 235.723 8.98671 235.723H66.864C74.8827 235.723 88.0054 235.723 96.024 235.723H153.9C161.92 235.723 165.188 229.656 161.163 222.719L133.172 174.089Z" fill="#1D2E10"/>
<path d="M82 235.723C76.5307 235.723 71.0133 235.723 66.864 235.723H8.98669C3.32402 235.723 0.0293333 232.699 0 228.477C0.012 226.759 0.56669 224.841 1.72402 222.848L29.7174 174.277C30.9134 172.217 31.4653 170.247 31.4413 168.496C31.5 164.177 28.1947 161.056 22.456 161.056H20.9027C15.2667 161.056 11.9773 158.463 11.916 154.515C11.9413 152.876 12.496 151.027 13.64 149.056L33.124 115.719C34.5547 113.253 35.236 110.947 35.2333 108.999C35.228 105.465 32.976 103.108 28.8747 103.108C24.7747 103.108 22.5227 100.751 22.5174 97.2185C22.5147 95.2692 23.1947 92.9639 24.6267 90.4985L42.0574 60.4626C46.0827 53.5252 52.6693 42.1759 56.6947 35.2412L74.1254 5.20653C76.1374 1.73987 78.788 0.0225525 81.44 0.0225525C81.6267 0.0225525 81.8133 0.0305328 82 0.0478668V235.723Z" fill="#224018"/>
<path d="M63.336 267.722L76.6693 89.0558H82.0027L95.3373 267.722H63.336Z" fill="#281812"/>
<path d="M76.7293 176.283L101.617 159.251L103.187 160.821L86.1573 185.709L76.7293 176.283Z" fill="#281812"/>
<path d="M76.7293 215.043L59.6987 190.155L61.2707 188.584L86.1574 205.616L76.7293 215.043Z" fill="#281812"/>
<path d="M76.7293 155.043L59.6987 130.155L61.2707 128.584L86.1574 145.616L76.7293 155.043Z" fill="#281812"/>
</svg>
