<svg width="155" height="297" viewBox="0 0 155 297" fill="none" xmlns="http://www.w3.org/2000/svg">
<path d="M141.609 148.451C141.496 148.281 141.371 148.121 141.256 147.953C144.604 138.872 146.043 129.092 145.297 119.352C144.224 105.337 138.659 91.9321 129.716 81.2027C134.189 72.1747 136.244 61.9841 135.468 51.8521C134.356 37.3308 127.455 23.5881 116.532 13.9694C112.501 11.2641 108.471 8.55746 104.44 5.8508C95.176 1.32413 85.4027 -0.575867 75.1187 0.150787C70.3693 1.15079 65.6173 2.15076 60.8653 3.14944C51.6267 6.44144 43.7507 11.7548 37.2373 19.0881C27.3013 30.3734 22.2693 45.5054 23.4187 60.5001C23.908 66.8974 25.524 73.1428 28.1107 78.9521C27.8 79.2894 27.4747 79.6055 27.168 79.9508C15.2187 93.5228 9.16933 111.719 10.5507 129.751C11.0293 136 12.4133 142.124 14.5773 147.949C12.5707 150.88 10.7413 153.969 9.10667 157.227C8.43467 158.601 7.81334 159.984 7.22801 161.375C1.90401 172.395 -1.012 188.653 0.321335 200.317C1.41334 213.696 5.692 225.959 13.1573 237.108C24.42 253.807 42.064 265.489 61.8467 269.335C81.6293 273.181 102.367 268.957 119.064 257.695C125.101 253.623 130.488 248.695 135.097 243.135L135.193 243.044C144.08 234.404 151.071 217.903 153.332 206.065C153.732 199.209 154.133 192.352 154.535 185.495C153.435 172.025 149.127 159.677 141.609 148.451Z" fill="#1D2E10"/>
<path d="M76.2707 270.717C71.5307 270.717 66.7747 270.277 62.0707 269.379C62.0347 269.371 62.0013 269.365 61.964 269.357C61.9627 269.357 61.9613 269.357 61.9587 269.357C61.9213 269.349 61.884 269.343 61.8467 269.335C42.064 265.489 24.42 253.807 13.1573 237.108C5.69201 225.959 1.41334 213.696 0.32134 200.317C0.10534 198.427 0.00133526 196.415 1.92319e-06 194.325C-0.00266474 183.52 2.76801 170.608 7.22801 161.375C7.81335 159.984 8.43467 158.601 9.10667 157.227C10.7413 153.969 12.5707 150.88 14.5773 147.949C12.4133 142.124 11.0293 136 10.5507 129.751C10.4213 128.06 10.3573 126.368 10.356 124.679C10.356 108.348 16.3387 92.2507 27.168 79.9507C27.4747 79.6054 27.8 79.2894 28.1107 78.9521C25.524 73.1427 23.908 66.8974 23.4187 60.5C23.3107 59.0934 23.2573 57.6867 23.2573 56.2827C23.256 42.7014 28.2333 29.3161 37.2373 19.0881C43.7507 11.7547 51.6267 6.44138 60.8653 3.14938C65.6173 2.15073 70.3693 1.15076 75.1187 0.150757C75.2747 0.140076 75.4307 0.129364 75.5853 0.120026C75.588 0.120026 75.592 0.120056 75.5947 0.118713C75.612 0.118713 75.6307 0.117401 75.648 0.116058C76.8773 0.0400696 78.0987 0.00140381 79.3133 0.00140381C82.1347 0.00140381 84.916 0.206726 87.6573 0.610718C66.8147 12.7067 52.5413 35.2974 52.5413 60.7334C52.5413 70.268 54.548 79.4014 58.1507 87.736C42.644 100.585 32.6347 119.932 32.6347 141.265C32.6347 150.881 34.6747 160.091 38.3293 168.487C32.1253 178.821 28.5267 190.833 28.5267 203.564C28.5267 235.48 51.08 262.916 80.8747 270.58C79.3427 270.671 77.808 270.717 76.2707 270.717Z" fill="#224018"/>
<path d="M61.3 296.652L74.6333 163.319H79.9667L93.3 296.652H61.3Z" fill="#281812"/>
<path d="M74.6934 205.211L99.5814 188.18L101.152 189.752L84.1214 214.64L74.6934 205.211Z" fill="#281812"/>
<path d="M74.6933 243.973L57.6627 219.085L59.2346 217.513L84.1213 234.545L74.6933 243.973Z" fill="#281812"/>
</svg>
