<svg id="hunter" xmlns="http://www.w3.org/2000/svg" viewBox="0 0 512 512" style="height: 200px; width: 200px;">
    <g class="" transform="translate(0,0)" style="touch-action: none;">
        <g>
            <path d="M247 24L247 39.2C134.4 43.81 43.81 134.4 39.2 247L24 247L24 265L39.2 265C43.81 377.6 134.4 468.2 247 472.8L247 488L265 488L265 472.8C377.6 468.2 468.2 377.6 472.8 265L488 265L488 247L472.8 247C468.2 134.4 377.6 43.81 265 39.2L265 24L247 24Z" class="selected" fill="#ffffff" fill-opacity="0" stroke="#000000" stroke-opacity="1" stroke-width="8"></path>
            <path d="M247 57.21L247 88L265 88L265 57.21C367.8 61.78 450.2 144.2 454.8 247L424 247L424 265L454.8 265C450.2 367.8 367.8 450.2 265 454.8L265 424L247 424L247 454.8C144.2 450.2 61.78 367.8 57.21 265L88 265L88 247L57.21 247C61.78 144.2 144.2 61.78 247 57.21Z" class="" fill="#ffffff" fill-opacity="0" stroke="#000000" stroke-opacity="1" stroke-width="8"></path>
            <path d="M256 110C220.654 110 192 138.654 192 174C192.01 199.32 206.946 222.253 230.1 232.5C172.6 280.9 161.9 349.6 176 406L336 406C350.1 349.6 339.3 280.8 281.9 232.4C305.021 222.168 319.951 199.284 320 174C320 138.654 291.346 110 256 110Z" class="" fill="#ffffff" fill-opacity="0" stroke="#000000" stroke-opacity="1" stroke-width="8"></path>
        </g>
    </g>
</svg>