<svg id="priest" xmlns="http://www.w3.org/2000/svg" viewBox="0 0 512 512" style="height: 200px; width: 200px;">
    <g class="" transform="translate(0,0)" style="touch-action: none;">
        <g>
            <path d="M247 29.337L247 52.337L224 52.337L224 70.337L247 70.337L247 101.047C250.042 100.587 253.046 100.337 256 100.337C258.954 100.337 261.958 100.587 265 101.047L265 70.337L288 70.337L288 52.337L265 52.337L265 29.337L247 29.337Z" class="" fill="#ffffff" fill-opacity="0" stroke="#000000" stroke-opacity="1" stroke-width="8"></path>
            <path d="M256 118.337C253.87 118.337 251.52 118.619 249 119.142L249 428.942C253.678 428.788 258.322 428.788 263 428.942L263 119.142C260.48 118.619 258.13 118.337 256 118.337Z" class="" fill="#ffffff" fill-opacity="0" stroke="#000000" stroke-opacity="1" stroke-width="8"></path>
            <path d="M230.998 125.655C213.508 134.113 192.44 149.385 172.986 168.775C142.692 198.973 115.376 238.36 104.57 272.083C86.51 328.437 103.4 389.85 132.994 450.839C176.842 439.902 205.814 433.047 230.998 430.256L230.998 125.655Z" class="" fill="#ffffff" fill-opacity="0" stroke="#000000" stroke-opacity="1" stroke-width="8"></path>
            <path d="M281.002 125.655L281.002 430.257C306.185 433.047 335.158 439.903 379.006 450.839C408.601 389.849 425.489 328.436 407.43 272.082C396.623 238.359 369.308 198.972 339.014 168.775C319.56 149.385 298.491 134.112 281.002 125.655Z" class="" fill="#ffffff" fill-opacity="0" stroke="#000000" stroke-opacity="1" stroke-width="8"></path>
            <path d="M256 446.337C252.22 446.337 248.442 446.37 244.676 446.427C218.99 448.017 190.253 455.05 141.068 467.349L148.725 482.662C250.552 453.667 261.448 453.667 363.275 482.662L370.932 467.348C321.747 455.048 293.01 448.015 267.324 446.425C263.558 446.368 259.779 446.335 256 446.335Z" class="selected" fill="#ffffff" fill-opacity="0" stroke="#000000" stroke-opacity="1" stroke-width="8"></path>
        </g>
    </g>
</svg>