<svg id="werewolf" xmlns="http://www.w3.org/2000/svg" viewBox="0 0 512 512" style="height: 200px; width: 200px;">
    <g class="" transform="translate(0,0)" style="touch-action: none;">
        <g>
            <path d="M340.573 495.942L261.255 495.942C244.015 475.99 214.283 470.148 286.391 377.524C298.479 361.996 239.595 329.666 229.416 341.774C200.733 387.832 178.831 446.957 108.763 413.273C101.777 439.611 113.223 467.668 118.817 495.943L24.417 495.943C40.437 448.113 47.534 394.986 95.357 368.028L136.133 388.137C134.791 371.937 133.966 355.739 137.809 339.54C17.405 308.588 33.315 269.028 24.976 258.826L48.436 266.366C33.046 220.082 54.004 188.889 66.87 173.642C71.295 183.432 79.266 217.92 86.978 239.555C91.509 233.99 91.248 227.064 104.294 225.311C101.025 269.529 108.846 305.758 150.656 306.026C165.435 282.645 183.067 266.399 202.046 253.519C197.768 233.004 200.492 193.287 181.936 192.634C156.526 191.74 144.709 195.442 127.196 189.841C111.023 167.506 112.209 142.251 114.456 121.994C59.778 94.437 66.066 40.022 100.684 33.202C96.662 55.742 91.451 73.841 116.584 82.594C117.498 40.409 119.554 -6.778 182.428 28.322C162.281 35.684 140.986 44.447 146.351 67.806C192.958 44.922 202.225 72.306 209.437 89.664C192.287 89.204 171.175 69.859 157.359 96C149.092 111.643 160.672 139.175 171.324 155.21C201.852 129.575 226.951 95.41 274.661 107.172C251.514 82.222 250.595 57.272 248.966 32.322C264.884 36.903 282.242 46.4 306.5 69.747L457.316 69.747L432.74 119.46L417.156 99.188L393.081 123.928L371.296 97.676L342.25 131.19L355.656 147.39L370.738 128.397L390.846 150.182L415.982 128.956L428.83 141.245L417.1 169.732C384.718 172.02 353.124 158.547 318.79 199.896C328.197 221.477 345.042 234.692 371.296 237.32C433.03 160.061 459.135 196.656 468.604 218.312C449.892 210.916 427.459 213.132 419.614 239.275C513.718 225.99 484.784 285.934 478.348 302.502C469.291 281.611 470.428 251.909 436.65 264.132C458.541 314.112 437.496 319.85 424.92 328.927C421.955 301.432 420.995 258.537 393.64 266.367C345.066 280.268 312.23 300.662 294.212 231.176C281.967 244.135 273.366 259.696 275.779 283.124C340.413 302.258 369.994 333.498 375.861 387.031C377.244 399.656 326.938 407.836 303.149 402.101C294.641 448.746 315.884 474.196 340.574 495.942Z" class="selected" fill="#ffffff" fill-opacity="0" stroke="#000000" stroke-opacity="1" stroke-width="8"></path>
        </g>
    </g>
</svg>