<svg id="witch" xmlns="http://www.w3.org/2000/svg" viewBox="0 0 512 512" style="height: 200px; width: 200px;">
    <g class="" transform="translate(0,0)" style="touch-action: none;">
        <g>
            <path d="M416.125 42.406C358.549 42.863 311.262 68.21 271.312 107.281C229.328 148.344 196.312 204.891 171.312 262.781C172.092 267.284 174.372 271.727 178.406 276.439C183.564 282.463 191.589 288.552 201.594 294.032C221.604 304.994 249.384 313.577 277.094 318.502C304.804 323.427 332.599 324.712 352.25 321.94C362.075 320.554 369.788 318.03 374.063 315.377C378.337 312.724 378.979 311.42 378.875 308.752L379.595 308.722C376.187 265.894 373.595 219.925 379.687 176.782C382.507 156.81 387.355 137.348 394.907 119.158C363.334 150.598 331.989 184.583 308.063 213.878C343.481 143.678 394.263 92.48 449.188 44.908C437.812 43.198 426.768 42.324 416.125 42.408Z" class="selected" fill="#ffffff" fill-opacity="0" stroke="#000000" stroke-opacity="1" stroke-width="8"></path>
            <path d="M155.21 238.994C153.177 238.982 151.157 238.982 149.156 239C146.703 239.022 144.286 239.065 141.876 239.125C118.738 239.7 97.649 242.035 80 246.313C56.468 252.016 39.534 261.201 31.22 272.343C22.903 283.487 21.14 297.01 30.25 317.875C63.11 393.138 147.435 448.135 238.094 466.469C328.754 484.799 424.202 466.616 480.374 399.719C493.964 383.534 495.671 370.407 490.312 356.499C484.954 342.591 470.726 327.621 449.532 313.749C434.787 304.099 416.849 295.012 396.782 286.719C398.288 309.309 400.337 331.596 401.906 352.686L401.906 352.905C402.513 364.307 396.416 374.49 387.562 380.843C378.709 387.196 367.294 390.923 354.125 393.249C327.788 397.903 294.099 396.647 260.781 391.061C227.464 385.476 194.696 375.595 170.501 361.749C158.404 354.826 148.356 346.899 141.626 337.279C134.896 327.662 131.866 315.725 135.032 303.905L135.127 303.53L135.252 303.156C142.889 281.95 151.56 260.366 161.346 239.062C159.293 239.03 157.246 239.006 155.213 238.994Z" class="" fill="#ffffff" fill-opacity="0" stroke="#000000" stroke-opacity="1" stroke-width="8"></path>
            <path d="M161.844 285.656C158.764 293.456 155.827 301.252 153.031 309C151.436 315.246 152.631 320.407 156.938 326.563C161.312 332.813 169.218 339.486 179.782 345.531C200.91 357.621 232.182 367.311 263.877 372.626C295.571 377.94 327.893 378.906 350.877 374.846C362.369 372.814 371.407 369.426 376.657 365.656C381.907 361.89 383.521 358.93 383.252 353.876C382.735 346.946 382.164 339.849 381.564 332.626C374.116 336.656 365.094 338.993 354.846 340.439C332.114 343.645 303.056 342.104 273.816 336.907C244.574 331.711 215.316 322.852 192.596 310.407C181.236 304.185 171.474 297.067 164.221 288.595C163.396 287.633 162.601 286.662 161.845 285.657Z" class="" fill="#ffffff" fill-opacity="0" stroke="#000000" stroke-opacity="1" stroke-width="8"></path>
        </g>
    </g>
</svg>